# xmcd CD database file
#
# Track frame offsets:
#	150
#	17053
#	33842
#	51579
#	67575
#	82881
#	101860
#	122001
#	133576
#	152892
#	167468
#	181329
#
# Disc length: 2668 seconds
#
# Revision: 1
# Processed by: cddbd v1.5.2PL0 Copyright (c) Steve Scherf et al.
# Submitted via: CDex 1.70beta2
#
DISCID=920a6a0c
DTITLE=Belleville Outfit - Wanderin'
DYEAR=2008
DGENRE=Country
TTITLE0=Somebody Like You
TTITLE1=Caroline
TTITLE2=Wanderin'
TTITLE3=Wonder Why
TTITLE4=Don't Take it for Granted
TTITLE5=Ease My Mind
TTITLE6=Houston Town
TTITLE7=It's a Good Day
TTITLE8=Been Here Before
TTITLE9=Warm Summer's Evening
TTITLE10=Tell Her for Me When I'm Gone
TTITLE11=Too Far to Fall
EXTD=YEAR: 2008
EXTT0=
EXTT1=
EXTT2=
EXTT3=
EXTT4=
EXTT5=
EXTT6=
EXTT7=
EXTT8=
EXTT9=
EXTT10=
EXTT11=
PLAYORDER=
